<svg width="20" height="20" viewBox="0 0 20 20" fill="none" xmlns="http://www.w3.org/2000/svg">
<path d="M2.8 10C2.8 9.55817 2.44183 9.2 2 9.2C1.55817 9.2 1.2 9.55817 1.2 10L2.8 10ZM10 1.2C9.55817 1.2 9.2 1.55817 9.2 2C9.2 2.44183 9.55817 2.8 10 2.8L10 1.2ZM10 2.8C13.9765 2.8 17.2 6.02355 17.2 10L18.8 10C18.8 5.13989 14.8601 1.2 10 1.2L10 2.8ZM17.2 10C17.2 13.9765 13.9765 17.2 10 17.2L10 18.8C14.8601 18.8 18.8 14.8601 18.8 10L17.2 10ZM10 17.2C6.02355 17.2 2.8 13.9764 2.8 10L1.2 10C1.2 14.8601 5.13989 18.8 10 18.8L10 17.2Z" fill="#FFF"/>
</svg>
