<svg width="20" height="20" viewBox="0 0 20 20" fill="none" xmlns="http://www.w3.org/2000/svg">
<path d="M10 2.8C10.4418 2.8 10.8 2.44183 10.8 2C10.8 1.55817 10.4418 1.2 10 1.2L10 2.8ZM18.8 10C18.8 9.55817 18.4418 9.2 18 9.2C17.5582 9.2 17.2 9.55817 17.2 10L18.8 10ZM17.2 10C17.2 13.9764 13.9764 17.2 10 17.2L10 18.8C14.8601 18.8 18.8 14.8601 18.8 10L17.2 10ZM10 17.2C6.02355 17.2 2.8 13.9765 2.8 10L1.2 10C1.2 14.8601 5.13989 18.8 10 18.8L10 17.2ZM2.8 10C2.8 6.02355 6.02355 2.8 10 2.8L10 1.2C5.13989 1.2 1.2 5.13989 1.2 10L2.8 10Z" fill="#FFF"/>
</svg>
