<svg width="20" height="20" viewBox="0 0 20 20" fill="none" xmlns="http://www.w3.org/2000/svg">
<path d="M17.2 10C17.2 10.4418 17.5582 10.8 18 10.8C18.4418 10.8 18.8 10.4418 18.8 10H17.2ZM10 18.8C10.4418 18.8 10.8 18.4418 10.8 18C10.8 17.5582 10.4418 17.2 10 17.2V18.8ZM10 17.2C6.02355 17.2 2.8 13.9764 2.8 10H1.2C1.2 14.8601 5.13989 18.8 10 18.8V17.2ZM2.8 10C2.8 6.02355 6.02355 2.8 10 2.8V1.2C5.13989 1.2 1.2 5.13989 1.2 10H2.8ZM10 2.8C13.9764 2.8 17.2 6.02355 17.2 10H18.8C18.8 5.13989 14.8601 1.2 10 1.2V2.8Z" fill="#FFF"/>
</svg>
